<svg width="63" height="54" viewBox="0 0 63 54" fill="none" xmlns="http://www.w3.org/2000/svg">
<ellipse cx="31.15" cy="26.6447" rx="22.75" ry="20.25" fill="#C3ABAB"/>
<path d="M31.5 4.5C17.01 4.5 5.25 14.58 5.25 27C5.25 39.42 17.01 49.5 31.5 49.5C45.99 49.5 57.75 39.42 57.75 27C57.75 14.58 45.99 4.5 31.5 4.5ZM34.125 42.75H28.875V38.25H34.125V42.75ZM39.5587 25.3125L37.1962 27.3825C35.3062 29.025 34.125 30.375 34.125 33.75H28.875V32.625C28.875 30.15 30.0562 27.9 31.9462 26.2575L35.2012 23.4225C36.1725 22.6125 36.75 21.4875 36.75 20.25C36.75 17.775 34.3875 15.75 31.5 15.75C28.6125 15.75 26.25 17.775 26.25 20.25H21C21 15.2775 25.6987 11.25 31.5 11.25C37.3012 11.25 42 15.2775 42 20.25C42 22.23 41.055 24.03 39.5587 25.3125Z" fill="#725C5C"/>
</svg>
