<svg width="67" height="44" viewBox="0 0 67 44" fill="none" xmlns="http://www.w3.org/2000/svg">
<path d="M48.7273 7.96093H57.8636L67 18.2101V33.23H60.8025C60.4358 35.3351 59.1673 37.2602 57.2293 38.6525C55.2913 40.0449 52.8135 40.8112 50.25 40.8112C47.6865 40.8112 45.2087 40.0449 43.2707 38.6525C41.3327 37.2602 40.0642 35.3351 39.6975 33.23H24.257C23.895 35.3381 22.6284 37.2671 20.6898 38.6627C18.7513 40.0582 16.271 40.8265 13.7045 40.8265C11.1381 40.8265 8.65779 40.0582 6.71925 38.6627C4.78071 37.2671 3.51409 35.3381 3.15205 33.23H0V2.90713C0 2.23695 0.320859 1.59422 0.891993 1.12034C1.46313 0.646449 2.23775 0.380222 3.04545 0.380222H45.6818C46.4895 0.380222 47.2641 0.646449 47.8353 1.12034C48.4064 1.59422 48.7273 2.23695 48.7273 2.90713V7.96093ZM48.7273 13.0147V20.5954H60.9091V19.8753L54.7938 13.0147H48.7273Z" fill="#725C5C"/>
<ellipse cx="14.594" cy="34.1985" rx="11.2772" ry="9.80147" fill="#C3ABAB"/>
<ellipse cx="49.7524" cy="34.1985" rx="11.2772" ry="9.80147" fill="#C3ABAB"/>
</svg>
