<svg width="49" height="38" viewBox="0 0 49 38" fill="none" xmlns="http://www.w3.org/2000/svg">
<rect width="49" height="38" rx="10" fill="#4E4E4E"/>
<path fill-rule="evenodd" clip-rule="evenodd" d="M32.5665 25.0903C34.6315 22.9353 35.6047 20.2245 35.2882 17.5092C34.9716 14.794 33.389 12.2784 30.8624 10.4742C28.3358 8.66993 25.055 7.71262 21.6873 7.79697C18.3197 7.88132 15.1183 9.00101 12.7343 10.9282C10.3483 12.8568 8.96051 15.4493 8.85381 18.1773C8.74711 20.9054 9.92951 23.5637 12.1601 25.6106C14.3906 27.6575 17.5014 28.9389 20.8586 29.1936C24.2157 29.4484 27.5666 28.6574 30.2282 26.9817L30.2995 27.0421L37.3242 32.7297C37.478 32.8542 37.6607 32.953 37.8617 33.0204C38.0628 33.0878 38.2782 33.1225 38.4958 33.1225C38.7134 33.1225 38.9289 33.0878 39.1299 33.0204C39.3309 32.953 39.5136 32.8542 39.6674 32.7297C39.8213 32.6051 39.9433 32.4573 40.0266 32.2946C40.1099 32.1318 40.1527 31.9574 40.1527 31.7813C40.1527 31.6052 40.1099 31.4308 40.0266 31.268C39.9433 31.1053 39.8213 30.9575 39.6674 30.8329L32.641 25.1466C32.6168 25.1273 32.592 25.1085 32.5665 25.0903ZM29.1287 12.825C30.0636 13.5696 30.8072 14.4567 31.3166 15.4351C31.8259 16.4135 32.0909 17.4638 32.0962 18.5255C32.1016 19.5872 31.8472 20.6393 31.3477 21.621C30.8482 22.6027 30.1136 23.4947 29.1861 24.2454C28.2587 24.9962 27.1568 25.5908 25.944 25.9951C24.7312 26.3994 23.4315 26.6054 22.1199 26.601C20.8083 26.5967 19.5107 26.3822 18.302 25.97C17.0933 25.5577 15.9974 24.9557 15.0775 24.1989C13.2393 22.6865 12.2138 20.6473 12.2244 18.5255C12.2351 16.4038 13.2811 14.3714 15.1345 12.8711C16.988 11.3708 19.4987 10.5242 22.1199 10.5155C24.741 10.5069 27.2602 11.337 29.1287 12.825Z" fill="#725C5C"/>
</svg>
